                 Dark Reprieve 2008 DVDRip Xvid fasamoo LKRG

RIPPER                           : fasamoo
Format                           : AVI
Format/Info                      : Audio Video Interleave
File size                        : 700 MiB
Duration                         : 1h 18mn
Overall bit rate                 : 1 251 Kbps
Writing application              : VirtualDubMod 1.5.4.1 (build 2178/release)
Writing library                  : VirtualDubMod build 2178/release
Language                         : English
Subtitles                        : None
Genre                            : Mystery | Sci-Fi | Thriller

Video
ID                               : 0
Format                           : MPEG-4 Visual
Format profile                   : Advanced Simple@L5
Format settings, BVOP            : No
Format settings, QPel            : No
Format settings, GMC             : No warppoints
Format settings, Matrix          : Custom
Codec ID                         : XVID
Codec ID/Hint                    : XviD
Duration                         : 1h 18mn
Bit rate                         : 1 125 Kbps
Width                            : 720 pixels
Height                           : 400 pixels
Display aspect ratio             : 16:9
Frame rate                       : 23.976 fps
Color space                      : YUV
Chroma subsampling               : 4:2:0
Bit depth                        : 8 bits
Scan type                        : Progressive
Bits/(Pixel*Frame)               : 0.163
Stream size                      : 630 MiB (90%)
Writing library                  : XviD 1.2.1 (UTC 2008-12-04)

Audio
ID                               : 1
Format                           : MPEG Audio
Format version                   : Version 1
Format profile                   : Layer 3
Mode                             : Joint stereo
Mode extension                   : MS Stereo
Codec ID                         : 55
Codec ID/Hint                    : MP3
Duration                         : 1h 18mn
Bit rate mode                    : Variable
Bit rate                         : 113 Kbps
Nominal bit rate                 : 128 Kbps
Channel(s)                       : 2 channels
Sampling rate                    : 48.0 KHz
Stream size                      : 63.3 MiB (9%)
Alignment                        : Aligned on interleaves
Interleave, duration             : 24 ms (0.58 video frame)
Interleave, preload duration     : 320 ms
Writing library                  : LAME3.98r
Encoding settings                : -m j -V 4 -q 2 -lowpass 17 --abr 128


                                 PLOT


Two people Matt and Kate wake up in a closed down prison. They have no idea how they got there, or why they are there. In the prison they encounter several terrors as they look for an exit. 

  







                                 IMBD
                     
                    http://www.imdb.com/title/tt1194423/
 
http://leetleech.org/images/52107287830828182047.png 
http://leetleech.org/images/60020468502388159870.png 
http://leetleech.org/images/35462112430811918890.png 
http://leetleech.org/images/76406268304874631843.png 
http://leetleech.org/images/20571722904332421080.png 
http://leetleech.org/images/98083643976422967384.png 
http://leetleech.org/images/49138405350061187302.png 
http://leetleech.org/images/62358436651455814031.png